<svg width="101" height="101" viewBox="0 0 101 101" fill="none" xmlns="http://www.w3.org/2000/svg">
<path d="M98.7387 91.6189C99.2032 92.0834 99.5717 92.6349 99.8231 93.2418C100.074 93.8487 100.204 94.4992 100.204 95.1562C100.204 95.8131 100.074 96.4636 99.8231 97.0706C99.5717 97.6775 99.2032 98.229 98.7387 98.6935C98.2741 99.158 97.7227 99.5265 97.1157 99.7779C96.5088 100.029 95.8583 100.159 95.2014 100.159C94.5444 100.159 93.8939 100.029 93.287 99.7779C92.68 99.5265 92.1286 99.158 91.664 98.6935L50.2039 57.227L8.74366 98.6935C7.80551 99.6316 6.5331 100.159 5.20636 100.159C3.87961 100.159 2.60721 99.6316 1.66906 98.6935C0.730905 97.7553 0.203857 96.4829 0.203857 95.1562C0.203857 93.8294 0.730905 92.557 1.66906 91.6189L43.1355 50.1587L1.66906 8.6985C0.730905 7.76034 0.203857 6.48794 0.203857 5.16119C0.203857 3.83445 0.730905 2.56204 1.66906 1.62389C2.60721 0.685739 3.87961 0.158691 5.20636 0.158691C6.5331 0.158691 7.80551 0.685739 8.74366 1.62389L50.2039 43.0903L91.664 1.62389C92.6022 0.685739 93.8746 0.158691 95.2014 0.158691C96.5281 0.158691 97.8005 0.685739 98.7387 1.62389C99.6768 2.56204 100.204 3.83445 100.204 5.16119C100.204 6.48794 99.6768 7.76034 98.7387 8.6985L57.2722 50.1587L98.7387 91.6189Z" fill="white"/>
</svg>
