<svg width="31" height="30" viewBox="0 0 31 30" fill="none" xmlns="http://www.w3.org/2000/svg">
<g clip-path="url(#clip0_134_7574)">
<path d="M30.5323 15C30.5323 6.71484 23.8175 0 15.5323 0C7.24719 0 0.532349 6.71484 0.532349 15C0.532349 23.2852 7.24719 30 15.5323 30C15.6202 30 15.7081 30 15.796 29.9941V18.3223H12.5734V14.5664H15.796V11.8008C15.796 8.5957 17.7531 6.84961 20.6124 6.84961C21.9835 6.84961 23.1613 6.94922 23.5011 6.99609V10.3477H21.5323C19.9796 10.3477 19.6749 11.0859 19.6749 12.1699V14.5605H23.3956L22.9093 18.3164H19.6749V29.4199C25.9445 27.6211 30.5323 21.8496 30.5323 15Z" fill="#202020"/>
</g>
<defs>
<clipPath id="clip0_134_7574">
<rect width="30" height="30" fill="white" transform="translate(0.532349)"/>
</clipPath>
</defs>
</svg>
