<svg width="37" height="30" viewBox="0 0 37 30" fill="none" xmlns="http://www.w3.org/2000/svg">
<path d="M37 3.70754C35.6606 4.30106 34.2217 4.70209 32.709 4.88335C34.2698 3.94943 35.4375 2.47954 35.9942 0.747958C34.5278 1.61897 32.9229 2.23207 31.2493 2.5606C30.1238 1.35891 28.6331 0.562404 27.0085 0.294755C25.384 0.0271059 23.7165 0.303285 22.265 1.08041C20.8135 1.85754 19.6592 3.09214 18.9813 4.59253C18.3034 6.09293 18.1397 7.77516 18.5158 9.37807C15.5445 9.22888 12.6378 8.45659 9.98427 7.11131C7.33074 5.76603 4.98974 3.87784 3.11319 1.56926C2.47154 2.6761 2.1026 3.95939 2.1026 5.32609C2.10188 6.55643 2.40486 7.76793 2.98466 8.8531C3.56446 9.93826 4.40315 10.8635 5.42631 11.5468C4.23971 11.5091 3.0793 11.1884 2.04164 10.6116V10.7079C2.04152 12.4335 2.63842 14.106 3.73106 15.4416C4.8237 16.7772 6.34478 17.6937 8.0362 18.0355C6.93543 18.3334 5.78136 18.3772 4.66115 18.1638C5.13837 19.6486 6.06795 20.947 7.31975 21.8772C8.57155 22.8074 10.0829 23.3229 11.6422 23.3515C8.99519 25.4295 5.7261 26.5566 2.36086 26.5517C1.76474 26.5518 1.16913 26.517 0.577087 26.4474C3.993 28.6437 7.96937 29.8093 12.0304 29.8048C25.7777 29.8048 33.2929 18.4188 33.2929 8.54393C33.2929 8.22311 33.2849 7.89908 33.2705 7.57826C34.7323 6.52111 35.9941 5.21203 36.9968 3.71235L37 3.70754Z" fill="#202020"/>
</svg>
