<svg width="37" height="30" viewBox="0 0 37 30" fill="none" xmlns="http://www.w3.org/2000/svg">
<path d="M36.9999 3.61086C35.6605 4.20438 34.2216 4.60541 32.709 4.78667C34.2698 3.85275 35.4375 2.38286 35.9942 0.651278C34.5278 1.52229 32.9229 2.13539 31.2492 2.46392C30.1237 1.26223 28.633 0.465725 27.0085 0.198075C25.3839 -0.0695738 23.7165 0.206605 22.265 0.983734C20.8135 1.76086 19.6592 2.99546 18.9812 4.49585C18.3033 5.99625 18.1397 7.67848 18.5158 9.28139C15.5445 9.1322 12.6377 8.35991 9.98421 7.01463C7.33068 5.66935 4.98968 3.78116 3.11312 1.47258C2.47148 2.57942 2.10254 3.86271 2.10254 5.22941C2.10182 6.45975 2.4048 7.67125 2.9846 8.75642C3.5644 9.84158 4.40309 10.7669 5.42625 11.4501C4.23965 11.4124 3.07923 11.0918 2.04158 10.5149V10.6112C2.04146 12.3368 2.63836 14.0093 3.731 15.3449C4.82364 16.6805 6.34472 17.597 8.03614 17.9388C6.93537 18.2367 5.7813 18.2806 4.66109 18.0671C5.13831 19.5519 6.06789 20.8503 7.31969 21.7805C8.57149 22.7107 10.0828 23.2262 11.6422 23.2548C8.99513 25.3328 5.72604 26.4599 2.3608 26.455C1.76468 26.4552 1.16907 26.4203 0.577026 26.3507C3.99294 28.547 7.96931 29.7127 12.0304 29.7081C25.7776 29.7081 33.2929 18.3222 33.2929 8.44725C33.2929 8.12643 33.2848 7.8024 33.2704 7.48158C34.7322 6.42443 35.994 5.11535 36.9967 3.61567L36.9999 3.61086Z" fill="white"/>
</svg>
