<svg width="30" height="30" viewBox="0 0 30 30" fill="none" xmlns="http://www.w3.org/2000/svg">
<path fill-rule="evenodd" clip-rule="evenodd" d="M21.9853 17.9388C21.6177 17.755 19.8152 16.8692 19.4796 16.7458C19.144 16.6237 18.8997 16.5632 18.6542 16.9309C18.41 17.2961 17.708 18.1227 17.4945 18.3669C17.2799 18.6124 17.0664 18.6421 16.7 18.4595C16.3336 18.2744 15.1517 17.8882 13.7514 16.6397C12.662 15.6675 11.9255 14.4671 11.7121 14.0995C11.4986 13.7331 11.6886 13.5344 11.8724 13.3518C12.0378 13.1877 12.2389 12.9237 12.4227 12.7103C12.6065 12.4956 12.667 12.3426 12.7891 12.0971C12.9125 11.8529 12.8508 11.6394 12.7583 11.4556C12.667 11.2718 11.9341 9.46682 11.6282 8.73276C11.3308 8.01843 11.0286 8.11589 10.804 8.10356C10.5894 8.09369 10.3451 8.09122 10.1008 8.09122C9.85653 8.09122 9.45927 8.18251 9.12369 8.55016C8.78689 8.91658 7.84062 9.80363 7.84062 11.6086C7.84062 13.4123 9.1533 15.1555 9.33713 15.4011C9.52095 15.6453 11.9218 19.349 15.5995 20.9368C16.4755 21.3143 17.1577 21.5401 17.6895 21.7079C18.5679 21.9879 19.3673 21.9484 19.999 21.8534C20.7022 21.7486 22.1679 20.9664 22.4739 20.1102C22.7786 19.254 22.7786 18.5199 22.6873 18.3669C22.596 18.214 22.3517 18.1227 21.9841 17.9388H21.9853ZM15.296 27.0721H15.2911C13.1067 27.0725 10.9624 26.4853 9.08298 25.372L8.63884 25.108L4.02223 26.3195L5.25472 21.8189L4.9648 21.3575C3.74358 19.4136 3.0973 17.1638 3.10064 14.8681C3.1031 8.14427 8.57345 2.67392 15.301 2.67392C18.558 2.67392 21.6201 3.94466 23.9223 6.24926C25.0577 7.38007 25.9577 8.72482 26.5702 10.2057C27.1826 11.6866 27.4953 13.2742 27.4902 14.8767C27.4877 21.6005 22.0174 27.0721 15.296 27.0721ZM25.6741 4.4986C24.3148 3.13031 22.6974 2.04538 20.9158 1.30671C19.1341 0.568027 17.2235 0.190284 15.2948 0.195363C7.20895 0.195363 0.625779 6.7773 0.623312 14.8668C0.622078 17.4527 1.29693 19.9769 2.58124 22.2014L0.499939 29.8048L8.27736 27.7642C10.4288 28.9364 12.8398 29.5506 15.2899 29.5507H15.296C23.3819 29.5507 29.965 22.9687 29.9675 14.878C29.9735 12.95 29.5971 11.0399 28.8602 9.25836C28.1232 7.47678 27.0403 5.859 25.6741 4.4986Z" fill="#202020"/>
</svg>
