<svg width="31" height="30" viewBox="0 0 31 30" fill="none" xmlns="http://www.w3.org/2000/svg">
<path fill-rule="evenodd" clip-rule="evenodd" d="M15.7723 0.195312C7.59889 0.195312 0.96759 6.82661 0.96759 15.0001C0.96759 23.1735 7.59889 29.8048 15.7723 29.8048C23.9298 29.8048 30.5771 23.1735 30.5771 15.0001C30.5771 6.82661 23.9298 0.195312 15.7723 0.195312ZM25.5509 7.01907C27.3737 9.23896 28.3824 12.0155 28.4094 14.8878C27.9924 14.8076 23.8175 13.9563 19.6105 14.4868C19.513 14.2771 19.4328 14.0526 19.3366 13.828C19.0749 13.2104 18.7968 12.5999 18.5026 11.9972C23.1587 10.1022 25.2782 7.37315 25.5509 7.01907ZM15.7723 2.38025C18.9837 2.38025 21.9225 3.58313 24.1543 5.55833C23.9298 5.8791 22.0187 8.43292 17.523 10.1182C15.4503 6.31338 13.1556 3.19698 12.8015 2.71582C13.7753 2.48843 14.7723 2.3754 15.7723 2.37901V2.38025ZM10.3933 3.56709C10.7301 4.01741 12.9779 7.14861 15.0815 10.8732C9.17189 12.4475 3.95322 12.4154 3.39187 12.4154C4.21106 8.49708 6.86112 5.23756 10.3933 3.56709ZM3.11921 15.0161V14.6312C3.66576 14.6472 9.79862 14.7274 16.1104 12.8324C16.4793 13.5393 16.8161 14.2611 17.1368 14.984C16.9765 15.0321 16.8 15.0803 16.6397 15.1284C10.1206 17.2319 6.65138 22.9798 6.36269 23.4622C4.27449 21.1447 3.11897 18.1356 3.11921 15.0161ZM15.7723 27.6532C12.8496 27.6532 10.1527 26.6576 8.01712 24.9883C8.24166 24.522 10.8103 19.576 17.94 17.0875C17.9721 17.0715 17.9894 17.0715 18.0202 17.0555C19.8029 21.6634 20.5247 25.5336 20.7184 26.6415C19.1922 27.3003 17.523 27.6532 15.7723 27.6532ZM22.8219 25.4855C22.6936 24.7145 22.0187 21.0219 20.3643 16.4768C24.3307 15.8513 27.7987 16.879 28.233 17.0234C27.6865 20.5395 25.6632 23.5745 22.8219 25.4855Z" fill="#202020"/>
</svg>
