<svg width="30" height="30" viewBox="0 0 30 30" fill="none" xmlns="http://www.w3.org/2000/svg">
<path fill-rule="evenodd" clip-rule="evenodd" d="M21.5947 17.8421C21.2271 17.6583 19.4246 16.7725 19.089 16.6491C18.7535 16.527 18.5092 16.4665 18.2637 16.8342C18.0194 17.1994 17.3174 18.026 17.104 18.2703C16.8893 18.5158 16.6759 18.5454 16.3094 18.3628C15.943 18.1777 14.7611 17.7916 13.3608 16.543C12.2715 15.5709 11.5349 14.3704 11.3215 14.0028C11.1081 13.6364 11.298 13.4377 11.4819 13.2552C11.6472 13.0911 11.8483 12.827 12.0321 12.6136C12.2159 12.3989 12.2764 12.246 12.3985 12.0005C12.5219 11.7562 12.4602 11.5427 12.3677 11.3589C12.2764 11.1751 11.5436 9.37014 11.2376 8.63608C10.9403 7.92175 10.638 8.01921 10.4135 8.00688C10.1988 7.99701 9.95452 7.99454 9.71024 7.99454C9.46596 7.99454 9.0687 8.08583 8.73313 8.45348C8.39632 8.8199 7.45005 9.70695 7.45005 11.5119C7.45005 13.3156 8.76274 15.0589 8.94656 15.3044C9.13039 15.5487 11.5312 19.2523 15.209 20.8401C16.0849 21.2176 16.7672 21.4434 17.2989 21.6112C18.1773 21.8912 18.9768 21.8518 19.6084 21.7568C20.3117 21.6519 21.7773 20.8697 22.0833 20.0135C22.388 19.1573 22.388 18.4232 22.2967 18.2703C22.2054 18.1173 21.9612 18.026 21.5935 17.8421H21.5947ZM14.9055 26.9754H14.9005C12.7161 26.9758 10.5718 26.3886 8.69242 25.2754L8.24827 25.0113L3.63167 26.2229L4.86416 21.7222L4.57423 21.2608C3.35301 19.3169 2.70673 17.0671 2.71007 14.7714C2.71254 8.04759 8.18289 2.57724 14.9104 2.57724C18.1674 2.57724 21.2296 3.84798 23.5317 6.15258C24.6672 7.28339 25.5672 8.62814 26.1796 10.109C26.792 11.5899 27.1047 13.1775 27.0996 14.78C27.0972 21.5039 21.6268 26.9754 14.9055 26.9754ZM25.2836 4.40192C23.9242 3.03363 22.3069 1.9487 20.5252 1.21003C18.7435 0.471348 16.833 0.0936038 14.9042 0.0986834C6.81838 0.0986834 0.235215 6.68062 0.232748 14.7702C0.231514 17.3561 0.906363 19.8803 2.19067 22.1047L0.109375 29.7081L7.88679 27.6676C10.0383 28.8397 12.4492 29.4539 14.8993 29.454H14.9055C22.9913 29.454 29.5745 22.8721 29.577 14.7813C29.5829 12.8533 29.2065 10.9433 28.4696 9.16168C27.7326 7.3801 26.6498 5.76232 25.2836 4.40192Z" fill="white"/>
</svg>
