<svg width="140" height="140" viewBox="0 0 140 140" fill="none" xmlns="http://www.w3.org/2000/svg">
<g clip-path="url(#clip0_211_222)">
<rect opacity="0.1" width="140" height="140" rx="39.2683" fill="white"/>
<g filter="url(#filter0_d_211_222)">
<path d="M47.1598 31.7803C51.9127 31.7843 56.5391 30.2489 60.3465 27.404L66.841 22.5513C69.2666 20.8524 72.4962 20.8524 74.9218 22.5513L81.8347 27.5646C85.567 30.2712 90.0552 31.7369 94.6655 31.7547L100.161 31.7759C105.606 31.7759 110.021 36.1901 110.021 41.6352V41.6352C110.021 46.6021 112.219 51.3145 116.024 54.5065L116.26 54.7046C116.739 55.106 117.015 55.6986 117.015 56.3232V112.103C117.015 115.993 113.862 119.146 109.973 119.146H32.0267C28.1376 119.146 24.9844 115.993 24.9844 112.103L24.9878 56.3231C24.9878 55.6986 25.2643 55.106 25.7423 54.7046L25.9738 54.5104C29.7802 51.3173 31.9786 46.6036 31.9786 41.6352V41.6352C31.9786 36.1901 36.3924 31.7759 41.8379 31.7759L47.1598 31.7803Z" fill="#FF0000" fill-opacity="0.01"/>
</g>
<mask id="mask0_211_222" style="mask-type:alpha" maskUnits="userSpaceOnUse" x="24" y="18" width="94" height="102">
<path d="M53.0746 31.776L66.9592 20.1284C69.3848 18.4295 72.6144 18.4295 75.04 20.1284L88.9256 31.776H100.161C105.606 31.776 110.021 36.1901 110.021 41.6353V49.4709L116.26 54.7047C116.739 55.1061 117.015 55.6987 117.015 56.3233V112.103C117.015 115.993 113.862 119.146 109.973 119.146H32.0267C28.1376 119.146 24.9844 115.993 24.9844 112.103L24.9878 56.3232C24.9878 55.6986 25.2643 55.1061 25.7423 54.7047L31.9786 49.4731V41.6353C31.9786 36.1901 36.3924 31.776 41.8379 31.776H53.0746Z" fill="#FFEAE9"/>
</mask>
<g mask="url(#mask0_211_222)">
<path d="M64.7103 23.0875L28.1119 52.8016C26.1355 54.4061 24.9878 56.8161 24.9877 59.3618L24.9846 112.103C24.9846 115.993 28.1376 119.146 32.027 119.146H109.973C113.862 119.146 117.015 115.993 117.015 112.103V59.3719C117.015 56.8204 115.863 54.4056 113.879 52.8011L77.1246 23.0757C73.5032 20.1469 68.3262 20.1517 64.7103 23.0875Z" fill="#EAE9E9"/>
<path d="M100.162 31.7759C105.607 31.7759 110.021 36.19 110.021 41.6352L110.021 117.737C110.021 118.515 109.39 119.146 108.613 119.146L33.3873 119.146C32.6095 119.146 31.9789 118.515 31.9789 117.737L31.9789 41.6351C31.9789 36.19 36.393 31.7759 41.8382 31.7759L100.162 31.7759Z" fill="#F9F9FF"/>
<rect x="42.608" y="65.6863" width="44.4953" height="6.42546" rx="3.21273" fill="#BEBEBE"/>
<rect x="42.6079" y="43.8298" width="44.0601" height="6.42546" rx="3.21273" fill="#BEBEBE"/>
<rect x="42.608" y="54.7581" width="33.4123" height="6.42546" rx="3.21273" fill="#BEBEBE"/>
<path d="M60.4273 87.0349L24.5634 58.0925L24.8123 116.261L60.4273 87.0349Z" fill="#BEBEBE"/>
<path d="M81.7558 87.5446L118.087 58.5105L117.583 113.834L81.7558 87.5446Z" fill="#BEBEBE"/>
<path d="M9.76733 117.385L63.0567 80.0603C67.9078 76.6625 74.3663 76.6625 79.2174 80.0603L143.481 125.072C144.608 125.862 144.049 127.634 142.673 127.634L12.9995 127.634C7.49198 127.634 5.25633 120.545 9.76733 117.385Z" fill="#838383"/>
</g>
</g>
<defs>
<filter id="filter0_d_211_222" x="-4.09433" y="4.17198" width="150.188" height="156.026" filterUnits="userSpaceOnUse" color-interpolation-filters="sRGB">
<feFlood flood-opacity="0" result="BackgroundImageFix"/>
<feColorMatrix in="SourceAlpha" type="matrix" values="0 0 0 0 0 0 0 0 0 0 0 0 0 0 0 0 0 0 127 0" result="hardAlpha"/>
<feOffset dy="11.9736"/>
<feGaussianBlur stdDeviation="14.5394"/>
<feColorMatrix type="matrix" values="0 0 0 0 0.290196 0 0 0 0 0.227451 0 0 0 0 1 0 0 0 0.15 0"/>
<feBlend mode="normal" in2="BackgroundImageFix" result="effect1_dropShadow_211_222"/>
<feBlend mode="normal" in="SourceGraphic" in2="effect1_dropShadow_211_222" result="shape"/>
</filter>
<clipPath id="clip0_211_222">
<rect width="140" height="140" fill="white"/>
</clipPath>
</defs>
</svg>
