<svg width="31" height="31" viewBox="0 0 31 31" fill="none" xmlns="http://www.w3.org/2000/svg">
<path d="M29.377 0.90332H1.77703C1.11328 0.90332 0.577026 1.43957 0.577026 2.10332V29.7033C0.577026 30.3671 1.11328 30.9033 1.77703 30.9033H29.377C30.0408 30.9033 30.577 30.3671 30.577 29.7033V2.10332C30.577 1.43957 30.0408 0.90332 29.377 0.90332ZM9.47578 26.4671H5.02453V12.1496H9.47578V26.4671ZM7.25203 10.1921C6.74175 10.1921 6.24293 10.0408 5.81866 9.75726C5.39438 9.47377 5.06369 9.07083 4.86842 8.59939C4.67314 8.12796 4.62205 7.60921 4.7216 7.10874C4.82115 6.60827 5.06687 6.14855 5.42769 5.78773C5.78851 5.42692 6.24822 5.18119 6.74869 5.08164C7.24916 4.98209 7.76792 5.03319 8.23935 5.22846C8.71078 5.42374 9.11372 5.75442 9.39722 6.1787C9.68071 6.60298 9.83203 7.10179 9.83203 7.61207C9.82828 9.03707 8.67328 10.1921 7.25203 10.1921ZM26.1408 26.4671H21.6933V19.5033C21.6933 17.8421 21.6633 15.7083 19.3795 15.7083C17.0658 15.7083 16.7095 17.5158 16.7095 19.3833V26.4671H12.2658V12.1496H16.5333V14.1071H16.5933C17.1858 12.9821 18.637 11.7933 20.8045 11.7933C25.312 11.7933 26.1408 14.7596 26.1408 18.6146V26.4671Z" fill="white"/>
</svg>
