<svg width="85" height="70" viewBox="0 0 85 70" fill="none" xmlns="http://www.w3.org/2000/svg">
<path d="M77.5608 59.2397H7.10575C5.31064 59.2362 3.59004 58.5261 2.3207 57.2647C1.05136 56.0033 0.336721 54.2935 0.333252 52.5097V6.73C0.336721 4.94615 1.05136 3.23635 2.3207 1.97498C3.59004 0.713606 5.31064 0.00344706 7.10575 0H77.5608C79.3559 0.00344706 81.0765 0.713606 82.3458 1.97498C83.6151 3.23635 84.3298 4.94615 84.3333 6.73V52.5097C84.3298 54.2935 83.6151 56.0033 82.3458 57.2647C81.0765 58.5261 79.3559 59.2362 77.5608 59.2397ZM7.10575 2.68678C6.02665 2.68678 4.99175 3.11277 4.22871 3.87102C3.46567 4.62927 3.037 5.65768 3.037 6.73V52.5097C3.037 53.04 3.14233 53.5652 3.34697 54.055C3.5516 54.5448 3.85151 54.9897 4.2295 55.3641C4.60749 55.7385 5.05613 56.0351 5.5497 56.2368C6.04327 56.4386 6.57206 56.5416 7.10575 56.5399H77.5608C78.0944 56.5416 78.6232 56.4386 79.1168 56.2368C79.6104 56.0351 80.059 55.7385 80.437 55.3641C80.815 54.9897 81.1149 54.5448 81.3195 54.055C81.5242 53.5652 81.6295 53.04 81.6295 52.5097V6.73C81.6295 5.65768 81.2008 4.62927 80.4378 3.87102C79.6748 3.11277 78.6399 2.68678 77.5608 2.68678H7.10575Z" fill="#FD5956"/>
<path d="M26.0714 57.8962H23.3676V68.6694H26.0714V57.8962Z" fill="#FD5956"/>
<path d="M61.2989 57.8962H58.5951V68.6694H61.2989V57.8962Z" fill="#FD5956"/>
<path d="M64.0026 67.3132H20.6507V70H64.0026V67.3132Z" fill="#FD5956"/>
<path d="M82.9814 48.4663H1.68517V51.1531H82.9814V48.4663Z" fill="#FD5956"/>
<path d="M42.3332 40.4322C39.3854 40.4348 36.503 39.569 34.0502 37.9442C31.5974 36.3195 29.6843 34.0087 28.5526 31.3038C27.421 28.599 27.1215 25.6215 27.6922 22.7476C28.2628 19.8737 29.6779 17.2324 31.7586 15.1574C33.8394 13.0825 36.4924 11.667 39.3824 11.0898C42.2724 10.5126 45.2697 10.7997 47.9956 11.9147C50.7215 13.0298 53.0536 14.9227 54.6973 17.3544C56.3409 19.7861 57.2223 22.6474 57.2301 25.5767C57.2335 27.5241 56.851 29.4531 56.1042 31.2536C55.3574 33.0542 54.2611 34.6909 52.8778 36.0703C51.4945 37.4498 49.8513 38.545 48.042 39.2934C46.2328 40.0418 44.2929 40.4288 42.3332 40.4322ZM42.3332 13.4992C39.9216 13.4992 37.5642 14.2098 35.5591 15.5412C33.5539 16.8726 31.9911 18.7649 31.0682 20.979C30.1454 23.193 29.9039 25.6292 30.3744 27.9796C30.8448 30.33 32.0061 32.489 33.7114 34.1835C35.4166 35.8781 37.5892 37.0321 39.9545 37.4996C42.3197 37.9671 44.7713 37.7272 46.9993 36.8101C49.2273 35.893 51.1316 34.34 52.4714 32.3474C53.8112 30.3549 54.5263 28.0122 54.5263 25.6158C54.5298 24.0218 54.217 22.4428 53.606 20.969C52.9949 19.4952 52.0975 18.1555 50.9651 17.0266C49.8327 15.8976 48.4875 15.0016 47.0064 14.3896C45.5253 13.7776 43.9373 13.4618 42.3332 13.46V13.4992Z" fill="#FD5956"/>
<path d="M24.7195 40.4322C21.7723 40.4322 18.8911 39.5642 16.4401 37.9379C13.989 36.3116 12.0779 33.9999 10.9483 31.2948C9.81861 28.5897 9.52105 25.6126 10.0932 22.7396C10.6653 19.8666 12.0814 17.2265 14.1627 15.1528C16.244 13.0791 18.897 11.6649 21.7866 11.0888C24.6763 10.5127 27.673 10.8006 30.3981 11.916C33.1232 13.0314 35.4545 14.9244 37.0976 17.3558C38.7407 19.7872 39.6217 22.6479 39.6295 25.5767C39.6329 27.5252 39.2499 29.4553 38.5023 31.2567C37.7547 33.058 36.6572 34.6953 35.2725 36.075C33.8879 37.4546 32.2431 38.5495 30.4324 39.2972C28.6216 40.0448 26.6803 40.4305 24.7195 40.4322ZM24.7195 13.4992C22.3079 13.4992 19.9505 14.2098 17.9454 15.5412C15.9402 16.8726 14.3774 18.7649 13.4545 20.979C12.5317 23.193 12.2902 25.6292 12.7607 27.9796C13.2311 30.33 14.3924 32.489 16.0977 34.1835C17.8029 35.8781 19.9755 37.0321 22.3407 37.4996C24.706 37.9671 27.1576 37.7272 29.3856 36.8101C31.6136 35.893 33.5179 34.34 34.8577 32.3474C36.1975 30.3549 36.9126 28.0122 36.9126 25.6158C36.9161 24.0218 36.6033 22.4428 35.9923 20.969C35.3812 19.4952 34.4838 18.1555 33.3514 17.0266C32.219 15.8976 30.8738 15.0016 29.3927 14.3896C27.9115 13.7776 26.3236 13.4618 24.7195 13.4601V13.4992Z" fill="#FD5956"/>
<path d="M59.947 40.4322C56.9992 40.4348 54.1168 39.569 51.664 37.9442C49.2112 36.3195 47.2981 34.0087 46.1664 31.3038C45.0348 28.599 44.7353 25.6215 45.306 22.7476C45.8766 19.8737 47.2917 17.2324 49.3725 15.1574C51.4532 13.0825 54.1062 11.667 56.9962 11.0898C59.8862 10.5126 62.8836 10.7997 65.6094 11.9147C68.3353 13.0298 70.6674 14.9227 72.3111 17.3544C73.9547 19.7861 74.8361 22.6474 74.8439 25.5767C74.8474 29.5086 73.2807 33.2813 70.4877 36.0665C67.6948 38.8517 63.9038 40.4219 59.947 40.4322ZM59.947 13.4992C57.5354 13.4992 55.178 14.2098 53.1729 15.5412C51.1677 16.8726 49.6049 18.7649 48.682 20.979C47.7592 23.193 47.5177 25.6292 47.9882 27.9796C48.4587 30.33 49.6199 32.489 51.3252 34.1835C53.0304 35.8781 55.203 37.0321 57.5683 37.4996C59.9335 37.9671 62.3851 37.7272 64.6131 36.8101C66.8411 35.893 68.7454 34.34 70.0852 32.3474C71.425 30.3549 72.1401 28.0122 72.1401 25.6158C72.1436 24.0218 71.8309 22.4428 71.2198 20.969C70.6087 19.4952 69.7114 18.1555 68.5789 17.0266C67.4465 15.8976 66.1013 15.0016 64.6202 14.3896C63.1391 13.7776 61.5511 13.4618 59.947 13.46V13.4992Z" fill="#FD5956"/>
</svg>
