<svg width="73" height="72" viewBox="0 0 73 72" fill="none" xmlns="http://www.w3.org/2000/svg">
<path d="M12.2766 11.61H0.666626V0H12.2766V11.61ZM2.98413 9.2925H9.95913V2.3175H2.98413V9.2925Z" fill="#FD5956"/>
<path d="M72.6666 11.61H61.0566V0H72.6666V11.61ZM63.3741 9.2925H70.3379V2.3175H63.3741V9.2925Z" fill="#FD5956"/>
<path d="M42.4716 11.61H30.8616V0H42.4716V11.61ZM33.1791 9.2925H40.1541V2.3175H33.1791V9.2925Z" fill="#FD5956"/>
<path d="M12.2766 72H0.666626V60.39H12.2766V72ZM2.98413 69.6825H9.95913V62.7075H2.98413V69.6825Z" fill="#FD5956"/>
<path d="M12.2766 41.805H0.666626V30.195H12.2766V41.805ZM2.98413 39.4875H9.95913V32.5125H2.98413V39.4875Z" fill="#FD5956"/>
<path d="M72.6666 41.805H61.0566V30.195H72.6666V41.805ZM63.3741 39.4875H70.3379V32.5125H63.3741V39.4875Z" fill="#FD5956"/>
<path d="M72.6666 72H61.0566V60.39H72.6666V72ZM63.3741 69.6825H70.3379V62.7075H63.3741V69.6825Z" fill="#FD5956"/>
<path d="M42.4716 72H30.8616V60.39H42.4716V72ZM33.1791 69.6825H40.1541V62.7075H33.1791V69.6825Z" fill="#FD5956"/>
<path d="M32.0204 4.64625H11.1179V6.96375H32.0204V4.64625Z" fill="#FD5956"/>
<path d="M62.2154 4.64625H41.3129V6.96375H62.2154V4.64625Z" fill="#FD5956"/>
<path d="M32.0204 65.0363H11.1179V67.3538H32.0204V65.0363Z" fill="#FD5956"/>
<path d="M62.2154 65.0363H41.3129V67.3538H62.2154V65.0363Z" fill="#FD5956"/>
<path d="M68.0204 10.4513H65.7029V31.3538H68.0204V10.4513Z" fill="#FD5956"/>
<path d="M68.0204 40.6463H65.7029V61.5487H68.0204V40.6463Z" fill="#FD5956"/>
<path d="M7.63038 10.4513H5.31288V31.3538H7.63038V10.4513Z" fill="#FD5956"/>
<path d="M7.63038 40.6463H5.31288V61.5487H7.63038V40.6463Z" fill="#FD5956"/>
<path d="M36.6666 60.2437L23.1666 22.5L60.9104 36L43.4166 42.75L36.6666 60.2437ZM26.9691 26.3025L36.6666 53.5612L41.5379 40.905L54.2279 36L26.9691 26.3025Z" fill="#FD5956"/>
<path d="M27.3741 13.9388H25.0566V18.585H27.3741V13.9388Z" fill="#FD5956"/>
<path d="M18.8235 16.5207L17.1848 18.1594L20.4702 21.4448L22.1089 19.8061L18.8235 16.5207Z" fill="#FD5956"/>
<path d="M19.2516 24.39H14.6054V26.7075H19.2516V24.39Z" fill="#FD5956"/>
<path d="M20.4691 29.6516L17.1837 32.937L18.8224 34.5757L22.1078 31.2903L20.4691 29.6516Z" fill="#FD5956"/>
<path d="M27.3741 32.5125H25.0566V37.1587H27.3741V32.5125Z" fill="#FD5956"/>
<path d="M37.8254 24.39H33.1791V26.7075H37.8254V24.39Z" fill="#FD5956"/>
<path d="M33.6011 16.5218L30.3157 19.8072L31.9545 21.4459L35.2398 18.1605L33.6011 16.5218Z" fill="#FD5956"/>
</svg>
