<svg width="96" height="80" viewBox="0 0 96 80" fill="none" xmlns="http://www.w3.org/2000/svg">
<path d="M88.6154 0H22.1538C20.1953 0 18.317 0.766231 16.9321 2.13013C15.5473 3.49403 14.7692 5.34388 14.7692 7.27273V14.5455H7.38462C5.42609 14.5455 3.54779 15.3117 2.1629 16.6756C0.778019 18.0395 0 19.8893 0 21.8182V72.7273C0 74.6561 0.778019 76.506 2.1629 77.8699C3.54779 79.2338 5.42609 80 7.38462 80H73.8462C75.8047 80 77.683 79.2338 79.0679 77.8699C80.4528 76.506 81.2308 74.6561 81.2308 72.7273V65.4545H88.6154C90.5739 65.4545 92.4522 64.6883 93.8371 63.3244C95.222 61.9605 96 60.1107 96 58.1818V7.27273C96 5.34388 95.222 3.49403 93.8371 2.13013C92.4522 0.766231 90.5739 0 88.6154 0ZM73.8462 21.8182V29.0909H7.38462V21.8182H73.8462ZM73.8462 72.7273H7.38462V36.3636H73.8462V72.7273ZM88.6154 58.1818H81.2308V21.8182C81.2308 19.8893 80.4528 18.0395 79.0679 16.6756C77.683 15.3117 75.8047 14.5455 73.8462 14.5455H22.1538V7.27273H88.6154V58.1818Z" fill="#2A2C39"/>
</svg>
