<svg width="100" height="80" viewBox="0 0 100 80" fill="none" xmlns="http://www.w3.org/2000/svg">
<path d="M25.4662 25.8959L8.54084 40.0001L25.4662 54.1042C25.8122 54.3812 26.0995 54.7244 26.3113 55.1138C26.5231 55.5032 26.6551 55.9309 26.6995 56.3719C26.744 56.8129 26.7001 57.2583 26.5704 57.6821C26.4406 58.1059 26.2277 58.4996 25.9439 58.8402C25.6602 59.1807 25.3114 59.4612 24.918 59.6653C24.5245 59.8694 24.0943 59.993 23.6525 60.0288C23.2107 60.0647 22.7662 60.012 22.345 59.874C21.9238 59.736 21.5343 59.5154 21.1994 59.225L1.19902 42.5584C0.823734 42.2456 0.521802 41.8541 0.314602 41.4116C0.107402 40.9691 0 40.4865 0 39.998C0 39.5094 0.107402 39.0268 0.314602 38.5844C0.521802 38.1419 0.823734 37.7504 1.19902 37.4376L21.1994 20.7709C21.8791 20.2051 22.7556 19.9325 23.6363 20.013C24.5169 20.0934 25.3295 20.5205 25.8953 21.2001C26.4612 21.8797 26.7338 22.7562 26.6533 23.6369C26.5728 24.5175 26.1458 25.3301 25.4662 25.8959ZM98.801 37.4376L78.8006 20.7709C78.4641 20.4908 78.0756 20.2796 77.6575 20.1496C77.2394 20.0195 76.7998 19.9731 76.3637 20.013C75.9277 20.0528 75.5037 20.1782 75.1161 20.3818C74.7285 20.5855 74.3848 20.8636 74.1046 21.2001C73.5388 21.8797 73.2662 22.7562 73.3467 23.6369C73.4272 24.5175 73.8542 25.3301 74.5338 25.8959L91.4592 40.0001L74.5338 54.1042C74.1878 54.3812 73.9005 54.7244 73.6887 55.1138C73.4769 55.5032 73.3449 55.9309 73.3004 56.3719C73.256 56.8129 73.2999 57.2583 73.4296 57.6821C73.5594 58.1059 73.7723 58.4996 74.0561 58.8402C74.3398 59.1807 74.6886 59.4612 75.082 59.6653C75.4755 59.8694 75.9057 59.993 76.3475 60.0288C76.7893 60.0647 77.2338 60.012 77.655 59.874C78.0762 59.736 78.4657 59.5154 78.8006 59.225L98.801 42.5584C99.1763 42.2456 99.4782 41.8541 99.6854 41.4116C99.8926 40.9691 100 40.4865 100 39.998C100 39.5094 99.8926 39.0268 99.6854 38.5844C99.4782 38.1419 99.1763 37.7504 98.801 37.4376ZM64.4711 0.20011C64.0596 0.0507198 63.6228 -0.0161589 63.1854 0.00329248C62.7481 0.0227438 62.3189 0.128145 61.9223 0.313476C61.5257 0.498808 61.1695 0.760439 60.874 1.08343C60.5785 1.40643 60.3496 1.78446 60.2002 2.19594L33.533 75.5292C33.383 75.9409 33.3156 76.3782 33.3347 76.8159C33.3539 77.2537 33.4591 77.6834 33.6445 78.0805C33.8299 78.4776 34.0917 78.8342 34.4151 79.1299C34.7384 79.4257 35.1169 79.6548 35.5289 79.8042C35.8941 79.934 36.2788 80.0002 36.6664 80C37.351 80 38.0189 79.7893 38.5795 79.3964C39.1401 79.0035 39.5662 78.4476 39.7998 77.8042L66.467 4.47094C66.6164 4.05946 66.6833 3.62259 66.6638 3.18527C66.6444 2.74795 66.539 2.31874 66.3536 1.92216C66.1683 1.52557 65.9067 1.16938 65.5837 0.873905C65.2607 0.578435 64.8826 0.349479 64.4711 0.20011Z" fill="#2A2C38"/>
</svg>
