<svg width="31" height="30" viewBox="0 0 31 30" fill="none" xmlns="http://www.w3.org/2000/svg">
<path d="M29.3771 0H1.77709C1.11334 0 0.577087 0.53625 0.577087 1.2V28.8C0.577087 29.4638 1.11334 30 1.77709 30H29.3771C30.0408 30 30.5771 29.4638 30.5771 28.8V1.2C30.5771 0.53625 30.0408 0 29.3771 0ZM9.47584 25.5638H5.02459V11.2463H9.47584V25.5638ZM7.25209 9.28875C6.74181 9.28875 6.24299 9.13744 5.81872 8.85394C5.39444 8.57045 5.06375 8.16751 4.86848 7.69607C4.6732 7.22464 4.62211 6.70589 4.72166 6.20542C4.82121 5.70495 5.06693 5.24523 5.42775 4.88441C5.78857 4.5236 6.24828 4.27787 6.74875 4.17832C7.24923 4.07877 7.76798 4.12987 8.23941 4.32514C8.71084 4.52041 9.11379 4.8511 9.39728 5.27538C9.68077 5.69966 9.83209 6.19847 9.83209 6.70875C9.82834 8.13375 8.67334 9.28875 7.25209 9.28875ZM26.1408 25.5638H21.6933V18.6C21.6933 16.9388 21.6633 14.805 19.3796 14.805C17.0658 14.805 16.7096 16.6125 16.7096 18.48V25.5638H12.2658V11.2463H16.5333V13.2038H16.5933C17.1858 12.0788 18.6371 10.89 20.8046 10.89C25.3121 10.89 26.1408 13.8562 26.1408 17.7113V25.5638Z" fill="#202020"/>
</svg>
