<svg width="60" height="93" viewBox="0 0 60 93" fill="none" xmlns="http://www.w3.org/2000/svg">
<path d="M50 0H10C7.34783 0 4.8043 1.04871 2.92893 2.91543C1.05357 4.78216 0 7.31397 0 9.95392V82.9493C0 85.5892 1.05357 88.1211 2.92893 89.9878C4.8043 91.8545 7.34783 92.9032 10 92.9032H50C52.6522 92.9032 55.1957 91.8545 57.0711 89.9878C58.9464 88.1211 60 85.5892 60 82.9493V9.95392C60 7.31397 58.9464 4.78216 57.0711 2.91543C55.1957 1.04871 52.6522 0 50 0ZM53.3333 82.9493C53.3333 83.8293 52.9821 84.6732 52.357 85.2955C51.7319 85.9177 50.8841 86.2673 50 86.2673H10C9.11594 86.2673 8.2681 85.9177 7.64298 85.2955C7.01786 84.6732 6.66667 83.8293 6.66667 82.9493V9.95392C6.66667 9.07394 7.01786 8.23 7.64298 7.60776C8.2681 6.98552 9.11594 6.63594 10 6.63594H50C50.8841 6.63594 51.7319 6.98552 52.357 7.60776C52.9821 8.23 53.3333 9.07394 53.3333 9.95392V82.9493ZM35 18.2488C35 19.2332 34.7068 20.1954 34.1573 21.0139C33.6079 21.8324 32.827 22.4703 31.9134 22.847C30.9998 23.2237 29.9945 23.3222 29.0245 23.1302C28.0546 22.9381 27.1637 22.4641 26.4645 21.7681C25.7652 21.072 25.289 20.1852 25.0961 19.2198C24.9031 18.2544 25.0022 17.2537 25.3806 16.3442C25.759 15.4348 26.3999 14.6575 27.2221 14.1107C28.0444 13.5638 29.0111 13.2719 30 13.2719C31.3261 13.2719 32.5978 13.7962 33.5355 14.7296C34.4732 15.663 35 16.9289 35 18.2488Z" fill="#2A2C39"/>
</svg>
