<svg width="55" height="56" viewBox="0 0 55 56" fill="none" xmlns="http://www.w3.org/2000/svg">
<path fill-rule="evenodd" clip-rule="evenodd" d="M30.5773 28.4034L20.7344 18.113L23.2636 15.6937L35.4207 28.4034L23.2636 41.113L20.7344 38.6937L30.5773 28.4034Z" fill="black"/>
<path fill-rule="evenodd" clip-rule="evenodd" d="M27.5 52.4033C40.7548 52.4033 51.5 41.6582 51.5 28.4033C51.5 15.1485 40.7548 4.40332 27.5 4.40332C14.2452 4.40332 3.5 15.1485 3.5 28.4033C3.5 41.6582 14.2452 52.4033 27.5 52.4033ZM27.5 55.9033C42.6878 55.9033 55 43.5912 55 28.4033C55 13.2155 42.6878 0.90332 27.5 0.90332C12.3122 0.90332 0 13.2155 0 28.4033C0 43.5912 12.3122 55.9033 27.5 55.9033Z" fill="black"/>
</svg>
