<svg width="40" height="24" viewBox="0 0 40 24" fill="none" xmlns="http://www.w3.org/2000/svg">
<path d="M26.1163 1.58757H36.0976V3.90197H26.1163V1.58757ZM16.1151 10.7448C18.3215 9.7358 19.4772 8.20084 19.4772 5.82905C19.4772 1.13808 15.8249 0 11.6073 0H0V23.5457H11.9325C16.4053 23.5457 20.6029 21.4895 20.6029 16.7077C20.6029 13.7525 19.142 11.5672 16.1151 10.7448ZM5.41338 4.01674H10.4916C12.4478 4.01674 14.2039 4.53796 14.2039 6.70891C14.2039 8.70771 12.838 9.51106 10.9018 9.51106H5.41338V4.01674ZM11.192 19.5481H5.40838V13.064H11.3071C13.6886 13.064 15.1945 14.0155 15.1945 16.4256C15.1945 18.7974 13.3984 19.5481 11.192 19.5481ZM40 15.2684C40 10.2236 36.9131 6.02032 31.3296 6.02032C25.9012 6.02032 22.2089 9.92708 22.2089 15.0484C22.2089 20.3562 25.7061 24 31.3296 24C35.5872 24 38.344 22.1686 39.6698 18.2618H35.3521C34.8818 19.7203 32.9706 20.4854 31.4847 20.4854C28.6129 20.4854 27.1119 18.8787 27.1119 16.1482H39.965C39.98 15.8661 40 15.5696 40 15.2684ZM27.1119 13.1931C27.267 10.9504 28.833 9.54931 31.1745 9.54931C33.636 9.54931 34.8668 10.9313 35.0819 13.1931H27.1119Z" fill="#202020"/>
</svg>
