<svg width="11" height="14" viewBox="0 0 11 14" fill="none" xmlns="http://www.w3.org/2000/svg">
<path d="M10.0692 6.09159L1.88196 0.794843C1.74393 0.705454 1.58583 0.656654 1.424 0.653485C1.26218 0.650316 1.10248 0.692891 0.961412 0.776814C0.821687 0.859434 0.705292 0.979922 0.624197 1.12589C0.543102 1.27185 0.500233 1.43803 0.5 1.60732V12.1996C0.501053 12.4536 0.597416 12.6967 0.767905 12.8755C0.938395 13.0543 1.16906 13.1543 1.40919 13.1533C1.57679 13.1532 1.74114 13.1044 1.88424 13.0121L10.0692 7.71535C10.2007 7.63054 10.3095 7.51137 10.3849 7.3693C10.4604 7.22722 10.5 7.06701 10.5 6.90407C10.5 6.74112 10.4604 6.58091 10.3849 6.43884C10.3095 6.29676 10.2007 6.1776 10.0692 6.09279V6.09159Z" fill="white"/>
</svg>
