<svg width="55" height="55" viewBox="0 0 55 55" fill="none" xmlns="http://www.w3.org/2000/svg">
<path fill-rule="evenodd" clip-rule="evenodd" d="M30.5773 27.5L20.7344 17.2097L23.2636 14.7904L35.4207 27.5L23.2636 40.2097L20.7344 37.7904L30.5773 27.5Z" fill="black"/>
<path fill-rule="evenodd" clip-rule="evenodd" d="M27.5 51.5C40.7548 51.5 51.5 40.7548 51.5 27.5C51.5 14.2452 40.7548 3.5 27.5 3.5C14.2452 3.5 3.5 14.2452 3.5 27.5C3.5 40.7548 14.2452 51.5 27.5 51.5ZM27.5 55C42.6878 55 55 42.6878 55 27.5C55 12.3122 42.6878 0 27.5 0C12.3122 0 0 12.3122 0 27.5C0 42.6878 12.3122 55 27.5 55Z" fill="black"/>
</svg>
