<svg width="45" height="46" viewBox="0 0 45 46" fill="none" xmlns="http://www.w3.org/2000/svg">
<path fill-rule="evenodd" clip-rule="evenodd" d="M25.0178 23.4034L16.9645 14.984L19.0339 13.0046L28.9805 23.4034L19.0339 33.8022L16.9645 31.8227L25.0178 23.4034Z" fill="black"/>
<path fill-rule="evenodd" clip-rule="evenodd" d="M22.5 43.0397C33.3449 43.0397 42.1364 34.2482 42.1364 23.4033C42.1364 12.5585 33.3449 3.76696 22.5 3.76696C11.6551 3.76696 2.86364 12.5585 2.86364 23.4033C2.86364 34.2482 11.6551 43.0397 22.5 43.0397ZM22.5 45.9033C34.9264 45.9033 45 35.8297 45 23.4033C45 10.9769 34.9264 0.90332 22.5 0.90332C10.0736 0.90332 0 10.9769 0 23.4033C0 35.8297 10.0736 45.9033 22.5 45.9033Z" fill="black"/>
</svg>
