<svg width="86" height="68" viewBox="0 0 86 68" fill="none" xmlns="http://www.w3.org/2000/svg">
<path d="M85.5 68H0.5V0H85.5V68ZM3.23594 65.2858H82.7641V2.7142H3.23594V65.2858Z" fill="#FD5956"/>
<path d="M53.9703 35.3637H5.98516V5.44158H53.9703V35.3637ZM8.72109 32.6363H51.2211V8.15578H8.72109V32.6363Z" fill="#FD5956"/>
<path d="M80.0148 5.44158H56.7063V8.15578H80.0148V5.44158Z" fill="#FD5956"/>
<path d="M80.0148 10.8832H56.7063V13.5974H80.0148V10.8832Z" fill="#FD5956"/>
<path d="M80.0148 16.3247H56.7063V19.0389H80.0148V16.3247Z" fill="#FD5956"/>
<path d="M80.0148 21.7663H56.7063V24.4805H80.0148V21.7663Z" fill="#FD5956"/>
<path d="M80.0148 27.2079H56.7063V29.9221H80.0148V27.2079Z" fill="#FD5956"/>
<path d="M80.0148 32.6363H56.7063V35.3505H80.0148V32.6363Z" fill="#FD5956"/>
<path d="M29.2938 62.5584H5.98516V38.0779H29.2938V62.5584ZM8.72109 59.8442H26.5445V40.8448H8.72109V59.8442Z" fill="#FD5956"/>
<path d="M53.9703 62.5584H32.0297V38.0779H53.9703V62.5584ZM34.7789 59.8442H51.2211V40.8448H34.7789V59.8442Z" fill="#FD5956"/>
<path d="M80.0148 62.5584H56.7063V38.0779H80.0148V62.5584ZM59.4555 59.8442H77.2789V40.8448H59.4555V59.8442Z" fill="#FD5956"/>
<path d="M29.2938 29.9221C27.3946 29.9221 25.5381 29.3634 23.959 28.3167C22.3799 27.2699 21.1491 25.7822 20.4223 24.0415C19.6956 22.3008 19.5054 20.3855 19.8759 18.5376C20.2464 16.6897 21.161 14.9923 22.5039 13.6601C23.8468 12.3279 25.5578 11.4206 27.4204 11.053C29.2831 10.6855 31.2138 10.8741 32.9684 11.5951C34.723 12.3161 36.2227 13.5371 37.2778 15.1037C38.3329 16.6702 38.8961 18.512 38.8961 20.396C38.8961 22.9225 37.8844 25.3455 36.0836 27.132C34.2828 28.9185 31.8405 29.9221 29.2938 29.9221ZM29.2938 13.5974C27.9383 13.5974 26.6133 13.9961 25.4864 14.7431C24.3594 15.4902 23.481 16.552 22.9623 17.7943C22.4436 19.0366 22.3079 20.4036 22.5723 21.7224C22.8367 23.0412 23.4894 24.2526 24.4479 25.2034C25.4063 26.1543 26.6274 26.8018 27.9568 27.0641C29.2861 27.3264 30.6641 27.1918 31.9163 26.6772C33.1686 26.1626 34.2389 25.2912 34.9919 24.1732C35.7449 23.0552 36.1469 21.7407 36.1469 20.396C36.1434 18.594 35.4202 16.8667 34.1358 15.5925C32.8513 14.3183 31.1102 13.6008 29.2938 13.5974Z" fill="#FD5956"/>
</svg>
