<svg width="31" height="30" viewBox="0 0 31 30" fill="none" xmlns="http://www.w3.org/2000/svg">
<g clip-path="url(#clip0_134_7577)">
<path d="M24.3017 4.38562H6.76296C3.32189 4.38562 0.532349 7.17516 0.532349 10.6162V19.3838C0.532349 22.8248 3.32189 25.6144 6.76296 25.6144H24.3017C27.7428 25.6144 30.5323 22.8248 30.5323 19.3838V10.6162C30.5323 7.17516 27.7428 4.38562 24.3017 4.38562ZM20.088 15.4266L11.8846 19.3391C11.666 19.4434 11.4135 19.284 11.4135 19.0419V10.9722C11.4135 10.7266 11.6726 10.5674 11.8917 10.6784L20.0951 14.8356C20.339 14.9591 20.3348 15.3089 20.088 15.4266Z" fill="#202020"/>
</g>
<defs>
<clipPath id="clip0_134_7577">
<rect width="30" height="30" fill="white" transform="translate(0.532349)"/>
</clipPath>
</defs>
</svg>
